<svg width="52" height="58" viewBox="0 0 52 58" fill="none" xmlns="http://www.w3.org/2000/svg">
<path d="M26 28.0992C28.1728 28.0992 30.2565 27.1364 31.7929 25.4228C33.3293 23.7091 34.1924 21.3849 34.1924 18.9614C34.1924 16.538 33.3293 14.2138 31.7929 12.5001C30.2565 10.7865 28.1728 9.82373 26 9.82373C23.8272 9.82373 21.7435 10.7865 20.2071 12.5001C18.6707 14.2138 17.8076 16.538 17.8076 18.9614C17.8076 21.3849 18.6707 23.7091 20.2071 25.4228C21.7435 27.1364 23.8272 28.0992 26 28.0992ZM26 32.1139C15.1076 32.1139 8.125 38.8183 8.125 42.0826V48.178H43.875V42.0826C43.875 38.135 37.2645 32.1139 26 32.1139Z" fill="white"/>
</svg>
